<svg id="4117bb8f-6b20-4292-ac7b-33d91abf44e8" data-name="logo" xmlns="http://www.w3.org/2000/svg" viewBox="0 0 304.23 56.14"><defs><style>.\36 f5f4ae0-1def-4da6-a38c-cc82a04fc76f{fill:#e8e9e9;}</style></defs><title>logo-porcelain</title><path id="04bdf270-cf55-41f2-add0-ea781c5f6bf1" data-name="&lt;Path&gt;" class="6f5f4ae0-1def-4da6-a38c-cc82a04fc76f" d="M281.27,175.19h12.39v53.95H281.27V207.48h-24v21.66H244.81V175.19h12.47v22.67h24Zm74.32,27c0,17-10.56,28.07-27.48,28.07s-27.56-11-27.56-28.07,10.56-28.07,27.56-28.07S355.59,185,355.59,202.17Zm-12.87,0c0-12.12-5.56-19-14.61-19s-14.69,6.88-14.69,19,5.56,19,14.69,19S342.72,214.21,342.72,202.17Zm55.51,6a24.37,24.37,0,0,1-.16,3.6c-.4,5.86-4,9.38-10.8,9.38s-10.4-3.52-10.88-9.38c-.08-1.09-.08-2.11-.08-3.6v-33H363.92v31.2c0,2.5,0,4.07.16,6.88.71,9.07,7.15,17,23.19,17s22.48-7.9,23.11-17c.24-2.81.24-4.38.24-6.88v-31.2H398.24ZM462,184.65v-9.46H420.55v9.54h26.53l-28.75,35.11v9.3h44.08v-9.62H433.58Zm58.84,34.17V175.19H508.38v53.95H549V218.82Zm-56.59,10.32h33.31v-9.6H464.25Zm0-21.63h33.31v-9.6H464.25Zm33.24-32.35H464.19v9.6H497.5Z" transform="translate(-244.81 -174.1)"/></svg>